<svg width="133" height="36" viewBox="0 0 133 36" fill="none" xmlns="http://www.w3.org/2000/svg">
<circle cx="12.0143" cy="15.5143" r="12.0143" fill="#3575E2" fill-opacity="0.4"/>
<circle cx="16.9857" cy="20.4857" r="12.0143" fill="#3575E2"/>
<path d="M42.656 26V14.096H44.48L44.6 16.232C44.984 15.48 45.536 14.888 46.256 14.456C46.976 14.024 47.792 13.808 48.704 13.808C50.112 13.808 51.232 14.24 52.064 15.104C52.912 15.952 53.336 17.264 53.336 19.04V26H51.32V19.256C51.32 16.776 50.296 15.536 48.248 15.536C47.224 15.536 46.368 15.912 45.68 16.664C45.008 17.4 44.672 18.456 44.672 19.832V26H42.656ZM60.3504 26.288C59.3584 26.288 58.5344 26.12 57.8784 25.784C57.2224 25.448 56.7344 25 56.4144 24.44C56.0944 23.88 55.9344 23.272 55.9344 22.616C55.9344 21.4 56.3984 20.464 57.3264 19.808C58.2544 19.152 59.5184 18.824 61.1184 18.824H64.3344V18.68C64.3344 17.64 64.0624 16.856 63.5184 16.328C62.9744 15.784 62.2464 15.512 61.3344 15.512C60.5504 15.512 59.8704 15.712 59.2944 16.112C58.7344 16.496 58.3824 17.064 58.2384 17.816H56.1744C56.2544 16.952 56.5424 16.224 57.0384 15.632C57.5504 15.04 58.1824 14.592 58.9344 14.288C59.6864 13.968 60.4864 13.808 61.3344 13.808C62.9984 13.808 64.2464 14.256 65.0784 15.152C65.9264 16.032 66.3504 17.208 66.3504 18.68V26H64.5504L64.4304 23.864C64.0944 24.536 63.5984 25.112 62.9424 25.592C62.3024 26.056 61.4384 26.288 60.3504 26.288ZM60.6624 24.584C61.4304 24.584 62.0864 24.384 62.6304 23.984C63.1904 23.584 63.6144 23.064 63.9024 22.424C64.1904 21.784 64.3344 21.112 64.3344 20.408V20.384H61.2864C60.1024 20.384 59.2624 20.592 58.7664 21.008C58.2864 21.408 58.0464 21.912 58.0464 22.52C58.0464 23.144 58.2704 23.648 58.7184 24.032C59.1824 24.4 59.8304 24.584 60.6624 24.584ZM69.3748 26V14.096H71.1988L71.3428 15.824C71.7268 15.184 72.2388 14.688 72.8788 14.336C73.5188 13.984 74.2388 13.808 75.0388 13.808C75.9828 13.808 76.7908 14 77.4628 14.384C78.1508 14.768 78.6788 15.352 79.0468 16.136C79.4628 15.416 80.0308 14.848 80.7508 14.432C81.4868 14.016 82.2788 13.808 83.1268 13.808C84.5508 13.808 85.6868 14.24 86.5348 15.104C87.3828 15.952 87.8068 17.264 87.8068 19.04V26H85.8148V19.256C85.8148 18.024 85.5668 17.096 85.0708 16.472C84.5748 15.848 83.8628 15.536 82.9348 15.536C81.9748 15.536 81.1748 15.912 80.5348 16.664C79.9108 17.4 79.5988 18.456 79.5988 19.832V26H77.5828V19.256C77.5828 18.024 77.3348 17.096 76.8388 16.472C76.3428 15.848 75.6308 15.536 74.7028 15.536C73.7588 15.536 72.9668 15.912 72.3268 16.664C71.7028 17.4 71.3908 18.456 71.3908 19.832V26H69.3748ZM90.8435 26V8.72H92.8595V26H90.8435ZM101.516 26.288C100.38 26.288 99.3718 26.032 98.4918 25.52C97.6118 24.992 96.9158 24.264 96.4038 23.336C95.9078 22.408 95.6598 21.312 95.6598 20.048C95.6598 18.8 95.9078 17.712 96.4038 16.784C96.8998 15.84 97.5878 15.112 98.4678 14.6C99.3638 14.072 100.396 13.808 101.564 13.808C102.716 13.808 103.708 14.072 104.54 14.6C105.388 15.112 106.036 15.792 106.484 16.64C106.932 17.488 107.156 18.4 107.156 19.376C107.156 19.552 107.148 19.728 107.132 19.904C107.132 20.08 107.132 20.28 107.132 20.504H97.6518C97.6998 21.416 97.9078 22.176 98.2758 22.784C98.6598 23.376 99.1318 23.824 99.6918 24.128C100.268 24.432 100.876 24.584 101.516 24.584C102.348 24.584 103.044 24.392 103.604 24.008C104.164 23.624 104.572 23.104 104.828 22.448H106.82C106.5 23.552 105.884 24.472 104.972 25.208C104.076 25.928 102.924 26.288 101.516 26.288ZM101.516 15.512C100.556 15.512 99.6998 15.808 98.9478 16.4C98.2118 16.976 97.7878 17.824 97.6758 18.944H105.164C105.116 17.872 104.748 17.032 104.06 16.424C103.372 15.816 102.524 15.512 101.516 15.512ZM114.388 26.288C112.964 26.288 111.78 25.928 110.836 25.208C109.892 24.488 109.34 23.512 109.18 22.28H111.244C111.372 22.904 111.7 23.448 112.228 23.912C112.772 24.36 113.5 24.584 114.412 24.584C115.26 24.584 115.884 24.408 116.284 24.056C116.684 23.688 116.884 23.256 116.884 22.76C116.884 22.04 116.62 21.56 116.092 21.32C115.58 21.08 114.852 20.864 113.908 20.672C113.268 20.544 112.628 20.36 111.988 20.12C111.348 19.88 110.812 19.544 110.38 19.112C109.948 18.664 109.732 18.08 109.732 17.36C109.732 16.32 110.116 15.472 110.884 14.816C111.668 14.144 112.724 13.808 114.052 13.808C115.316 13.808 116.348 14.128 117.148 14.768C117.964 15.392 118.436 16.288 118.564 17.456H116.572C116.492 16.848 116.228 16.376 115.78 16.04C115.348 15.688 114.764 15.512 114.028 15.512C113.308 15.512 112.748 15.664 112.348 15.968C111.964 16.272 111.772 16.672 111.772 17.168C111.772 17.648 112.02 18.024 112.516 18.296C113.028 18.568 113.716 18.8 114.58 18.992C115.316 19.152 116.012 19.352 116.668 19.592C117.34 19.816 117.884 20.16 118.3 20.624C118.732 21.072 118.948 21.728 118.948 22.592C118.964 23.664 118.556 24.552 117.724 25.256C116.908 25.944 115.796 26.288 114.388 26.288ZM126.388 26.288C124.964 26.288 123.78 25.928 122.836 25.208C121.892 24.488 121.34 23.512 121.18 22.28H123.244C123.372 22.904 123.7 23.448 124.228 23.912C124.772 24.36 125.5 24.584 126.412 24.584C127.26 24.584 127.884 24.408 128.284 24.056C128.684 23.688 128.884 23.256 128.884 22.76C128.884 22.04 128.62 21.56 128.092 21.32C127.58 21.08 126.852 20.864 125.908 20.672C125.268 20.544 124.628 20.36 123.988 20.12C123.348 19.88 122.812 19.544 122.38 19.112C121.948 18.664 121.732 18.08 121.732 17.36C121.732 16.32 122.116 15.472 122.884 14.816C123.668 14.144 124.724 13.808 126.052 13.808C127.316 13.808 128.348 14.128 129.148 14.768C129.964 15.392 130.436 16.288 130.564 17.456H128.572C128.492 16.848 128.228 16.376 127.78 16.04C127.348 15.688 126.764 15.512 126.028 15.512C125.308 15.512 124.748 15.664 124.348 15.968C123.964 16.272 123.772 16.672 123.772 17.168C123.772 17.648 124.02 18.024 124.516 18.296C125.028 18.568 125.716 18.8 126.58 18.992C127.316 19.152 128.012 19.352 128.668 19.592C129.34 19.816 129.884 20.16 130.3 20.624C130.732 21.072 130.948 21.728 130.948 22.592C130.964 23.664 130.556 24.552 129.724 25.256C128.908 25.944 127.796 26.288 126.388 26.288Z" fill="#141414"/>
</svg>
